<svg width="559" height="242" viewBox="0 0 559 242" fill="none" xmlns="http://www.w3.org/2000/svg">
<g clip-path="url(#clip0_1_45)">
<path d="M0 0H559V242H0V0Z" fill="#EB1701"/>
<path d="M229.38 79.1066C216.87 54.3167 185.391 41 140.192 41C86.3154 41 53.2232 60.0533 53.2232 91.3989C53.2232 111.272 68.3569 124.383 100.642 132.784L114.767 136.471L128.286 140.159L142.411 143.847C143.017 144.051 144.026 144.256 145.035 144.871C150.079 146.92 153.106 149.788 153.106 153.066C153.106 159.827 143.622 164.334 129.497 164.334C106.897 164.334 95.3957 159.622 89.1407 148.149L28 156.549C43.7391 185.026 76.6299 199.367 128.286 199.367C183.172 199.367 220.703 177.446 220.703 145.486C220.703 127.866 203.552 111.272 177.32 104.716L165.011 101.643L152.702 98.3648L140.393 95.2916C136.963 94.2672 133.735 93.4477 130.91 92.4233C124.049 90.3745 120.82 87.5062 120.82 83.8188C120.82 77.4676 128.892 73.7797 141.403 73.7797C158.151 73.7797 170.459 79.1066 174.092 88.7354L229.38 79.1066Z" fill="white"/>
<path d="M383.709 93.6604H329.456L317.557 145.124C313.322 162.551 305.255 171.163 293.154 171.163C286.7 171.163 283.271 168.292 283.271 163.372C283.271 161.731 283.271 160.296 284.885 153.325L298.801 93.8658H243.741L229.018 158.861C227.405 166.652 225.993 173.213 225.993 176.699C225.993 190.026 242.733 200.893 264.514 200.893C286.498 200.893 299.809 194.742 312.918 178.544L308.28 198.022H359.911L383.709 93.6604Z" fill="white"/>
<path d="M395.487 93.6772L371.286 197.457H424.328L438.849 135.23C441.471 124.177 448.53 118.65 459.22 118.65C467.893 118.65 472.528 121.516 472.528 126.838C472.528 128.27 471.927 131.75 471.12 135.23L456.799 197.457H511.255L527.592 126.633C528.599 122.949 529 119.059 529 116.193C529 101.046 512.463 90.6069 488.264 90.6069C465.874 90.6069 449.74 97.5665 441.471 110.667L445.707 93.8821L395.487 93.6772Z" fill="white"/>
<path d="M282.456 41.7535H244.452L242.403 50.9848H253.677L246.818 82.1183H262.114L268.895 50.9848H280.485L282.456 41.7535ZM330.38 41.8376H315.207L312 56.5699H298.469L301.676 41.8376H286.581L277.821 81.7833H292.916L296.436 65.7328H310.045L306.525 81.7833H321.62L330.38 41.8376ZM376.009 41.8376H338.528L329.747 81.7833H368.247L370.285 72.6199H346.919L348.487 65.5533H367.07L368.952 56.8696H350.369L351.702 50.5809H374.127L376.009 41.8376ZM444.244 41.8376H430.198L424.702 66.9063L424.624 67.2496C423.769 70.9139 424.128 73.459 418.493 73.459C415.196 73.459 411.898 72.1965 411.898 69.3712C411.898 68.4094 412.134 67.4476 412.369 66.4853L417.708 41.8376H401.771L396.354 66.4853C396.039 67.9282 395.882 69.3712 395.882 70.8142C395.882 79.5311 405.618 82.5368 415.51 82.5368C421.869 82.5368 428.699 81.3344 433.252 77.7273C436.898 74.7621 437.972 70.7843 438.82 66.8818L444.244 41.8376ZM509.658 51.022C506.211 43.7167 497.204 41 487.723 41C476.838 41 466.34 44.6223 466.34 54.1612C466.34 67.1415 490.857 65.3303 490.857 70.3413C490.857 72.575 487.41 73.2996 485.063 73.2996C480.599 73.2996 476.917 72.575 475.112 69.0734L460.073 71.3075C464.379 79.6993 473.704 82.5368 484.75 82.5368C495.874 82.5368 507.546 78.1297 507.546 68.47C507.546 55.5499 483.102 57.1801 483.102 52.4107C483.102 50.3898 485.914 49.7732 488.016 49.7546L488.119 49.7541C491.64 49.7541 495.165 50.8411 496.187 53.6786L509.658 51.022ZM526.361 74.7484C526.361 79.0587 522.728 82.5368 518.23 82.5368C513.726 82.5368 510.098 79.0587 510.098 74.7484C510.098 70.4386 513.726 66.9606 518.23 66.9606C522.728 66.9606 526.361 70.4386 526.361 74.7484ZM457.537 73.9113C457.537 78.2211 453.905 81.6992 449.404 81.6992C444.903 81.6992 441.271 78.2211 441.271 73.9113C441.271 69.601 444.903 66.123 449.404 66.123C453.905 66.123 457.537 69.601 457.537 73.9113Z" fill="white"/>
</g>
<defs>
<clipPath id="clip0_1_45">
<rect width="559" height="242" fill="white"/>
</clipPath>
</defs>
</svg>
